# xmcd CD database file
#
# Track frame offsets:
#	150
#	17332
#	34257
#	50452
#	67240
#	85104
#	103586
#	119643
#	134117
#	149728
#	166521
#	184565
#	204137
#	224341
#	240751
#	256796
#
# Disc length: 3708 seconds
#
# Revision: 0
# Processed by: cddbd v1.5PL3 Copyright (c) Steve Scherf et al.
# Submitted via: CDex 1.51
#
DISCID=dd0e7a10
DTITLE=宇沙美ゆかり - 宇沙美ゆかり★BEST
DYEAR=2002
DGENRE=Pop
TTITLE0=蒼い多感期
TTITLE1=SHOCK!
TTITLE2=ツライ◇キライ◇クライMAX
TTITLE3=アルカリ少年(boy)
TTITLE4=風のプリマドンナ
TTITLE5=恋はDancing
TTITLE6=Com'on Whistle!
TTITLE7=恋のパトロール
TTITLE8=ちっぽけな悪戯
TTITLE9=颱風前夜
TTITLE10=夕映えのラブシャワー
TTITLE11=星のパートナー
TTITLE12=半分だけ恋
TTITLE13=恋とギャルソン
TTITLE14=初めての旅
TTITLE15=ファースト・スノウ・キッス
EXTD=YEAR: 2002
EXTT0=
EXTT1=
EXTT2=
EXTT3=
EXTT4=
EXTT5=
EXTT6=
EXTT7=
EXTT8=
EXTT9=
EXTT10=
EXTT11=
EXTT12=
EXTT13=
EXTT14=
EXTT15=
PLAYORDER=
